<svg width="309" height="80" viewBox="0 0 309 80" fill="none" xmlns="http://www.w3.org/2000/svg">
<path d="M57.45 35.95C57.45 33.55 57.5667 31.4167 57.8 29.55C58.0667 27.65 58.4167 26.05 58.85 24.75C59.2833 23.4167 59.85 22.2833 60.55 21.35C61.2833 20.4167 62.0167 19.6833 62.75 19.15C63.4833 18.6167 64.4 18.2 65.5 17.9C66.6 17.6 67.6333 17.4 68.6 17.3C69.5667 17.2 70.7333 17.15 72.1 17.15C73.3 17.15 74.3333 17.1833 75.2 17.25C76.1 17.3167 77.0333 17.4667 78 17.7C79 17.9 79.85 18.2 80.55 18.6C81.2833 19 82 19.5167 82.7 20.15C83.4 20.75 83.9833 21.5333 84.45 22.5C84.9167 23.4333 85.3333 24.5333 85.7 25.8C86.1 27.0333 86.3833 28.5167 86.55 30.25C86.75 31.95 86.85 33.85 86.85 35.95C86.85 38.2167 86.7167 40.25 86.45 42.05C86.2167 43.8167 85.9 45.35 85.5 46.65C85.1 47.9167 84.55 49 83.85 49.9C83.15 50.8 82.4167 51.5333 81.65 52.1C80.9167 52.6333 80.0167 53.0667 78.95 53.4C77.8833 53.7 76.8167 53.9 75.75 54C74.7167 54.1333 73.5 54.2 72.1 54.2C70.8667 54.2 69.7833 54.1667 68.85 54.1C67.95 54.0333 67 53.9 66 53.7C65.0333 53.5 64.2 53.2167 63.5 52.85C62.8 52.45 62.1 51.95 61.4 51.35C60.7 50.7167 60.1167 49.95 59.65 49.05C59.2167 48.1167 58.8167 47.05 58.45 45.85C58.1167 44.6167 57.8667 43.1833 57.7 41.55C57.5333 39.8833 57.45 38.0167 57.45 35.95ZM64.45 35.95C64.45 38.0167 64.5167 39.7167 64.65 41.05C64.7833 42.35 65 43.4667 65.3 44.4C65.6333 45.3333 66.1 46.0333 66.7 46.5C67.3333 46.9667 68.0667 47.3 68.9 47.5C69.7333 47.6667 70.8 47.75 72.1 47.75C73.6667 47.75 74.9 47.6 75.8 47.3C76.7333 47 77.5167 46.4167 78.15 45.55C78.7833 44.6833 79.2167 43.5 79.45 42C79.7167 40.4667 79.85 38.45 79.85 35.95C79.85 34.5167 79.8167 33.25 79.75 32.15C79.6833 31.05 79.5667 30.0833 79.4 29.25C79.2333 28.3833 79.05 27.65 78.85 27.05C78.65 26.45 78.3833 25.9333 78.05 25.5C77.7167 25.0667 77.3667 24.7333 77 24.5C76.6667 24.2667 76.2167 24.0833 75.65 23.95C75.1167 23.7833 74.5833 23.6833 74.05 23.65C73.5167 23.6167 72.8667 23.6 72.1 23.6C71.2333 23.6 70.5167 23.6333 69.95 23.7C69.4167 23.7333 68.8333 23.8333 68.2 24C67.6 24.1667 67.1333 24.4333 66.8 24.8C66.4667 25.1333 66.1167 25.6 65.75 26.2C65.4167 26.8 65.1667 27.55 65 28.45C64.8333 29.3167 64.7 30.3667 64.6 31.6C64.5 32.8333 64.45 34.2833 64.45 35.95ZM69.95 55.65H73.9C75.1333 57.7167 77.85 58.1833 82.05 57.05V62.7C81.0167 62.9 79.9667 63 78.9 63C77.8333 63.0333 76.7667 62.8833 75.7 62.55C74.6667 62.2167 73.7333 61.7667 72.9 61.2C72.1 60.6667 71.4167 59.9167 70.85 58.95C70.3167 57.9833 70.0167 56.8833 69.95 55.65ZM90.3949 45.1V27.45H97.3949V45.25C97.3949 47.6167 98.3783 48.8 100.345 48.8C101.245 48.8 102.062 48.7167 102.795 48.55C103.528 48.3833 104.178 48.15 104.745 47.85C105.345 47.5167 106.012 47.0667 106.745 46.5V27.45H113.745V54H108.095L106.745 51.2C106.445 51.3667 105.962 51.6667 105.295 52.1C104.628 52.5333 104.112 52.85 103.745 53.05C103.412 53.25 102.928 53.4833 102.295 53.75C101.695 54.0167 101.078 54.2 100.445 54.3C99.8116 54.4 99.0949 54.45 98.2949 54.45C93.0283 54.45 90.3949 51.3333 90.3949 45.1ZM117.885 23.5V19.1C117.885 18.2333 118.285 17.8 119.085 17.8H124.335C125.068 17.8 125.435 18.2333 125.435 19.1V23.5C125.435 23.8667 125.335 24.15 125.135 24.35C124.968 24.55 124.702 24.65 124.335 24.65H119.085C118.852 24.65 118.635 24.6167 118.435 24.55C118.268 24.45 118.135 24.3167 118.035 24.15C117.935 23.95 117.885 23.7333 117.885 23.5ZM118.135 54V27.45H125.135V54H118.135ZM129.213 40.7C129.213 38.0333 129.413 35.8 129.813 34C130.247 32.1667 130.863 30.7833 131.663 29.85C132.497 28.8833 133.413 28.2 134.413 27.8C135.413 27.4 136.597 27.2 137.963 27.2C142.863 27.2 146.93 27.7167 150.163 28.75V33.1C146.997 32.9 143.93 32.8 140.963 32.8C140.163 32.8 139.563 32.8333 139.163 32.9C138.797 32.9667 138.38 33.1333 137.913 33.4C137.447 33.6667 137.113 34.0833 136.913 34.65C136.713 35.2167 136.547 36 136.413 37C136.28 38 136.213 39.2833 136.213 40.85C136.213 43.1167 136.363 44.8 136.663 45.9C136.997 47 137.463 47.7333 138.063 48.1C138.697 48.4333 139.663 48.6 140.963 48.6C142.33 48.6 143.813 48.5667 145.413 48.5C147.013 48.4333 148.263 48.35 149.163 48.25L150.513 48.15V52.55C149.78 52.9167 149.03 53.2333 148.263 53.5C147.497 53.7333 146.563 53.9 145.463 54C144.397 54.1 143.63 54.1667 143.163 54.2C142.73 54.2333 141.797 54.25 140.363 54.25C138.93 54.25 138.13 54.25 137.963 54.25C134.163 54.25 131.63 52.5167 130.363 49.05C129.597 46.95 129.213 44.1667 129.213 40.7ZM154.32 54V14.9H161.32V36.35H162.77L170.27 27.45H179.17L169.22 39L179.17 54H170.82L162.77 41.7H161.32V54H154.32ZM198.612 29.7V26.55C198.612 25.15 198.779 23.9 199.112 22.8C199.445 21.7 199.895 20.8 200.462 20.1C201.029 19.4 201.729 18.8333 202.562 18.4C203.429 17.9333 204.329 17.6167 205.262 17.45C206.229 17.25 207.312 17.1333 208.512 17.1C211.045 17.0333 213.662 17.15 216.362 17.45C219.062 17.75 221.162 18.1167 222.662 18.55V24.05C218.862 23.7167 214.779 23.55 210.412 23.55C208.645 23.5167 207.395 23.7167 206.662 24.15C205.962 24.55 205.612 25.5333 205.612 27.1V28.9C205.612 30.3 205.895 31.2333 206.462 31.7C207.029 32.1667 208.045 32.4 209.512 32.4H215.312C216.179 32.4 216.979 32.4833 217.712 32.65C218.479 32.8167 219.129 33.05 219.662 33.35C220.229 33.65 220.729 34 221.162 34.4C221.629 34.8 222.012 35.25 222.312 35.75C222.645 36.25 222.912 36.7667 223.112 37.3C223.345 37.8 223.512 38.3333 223.612 38.9C223.745 39.4667 223.829 40.0167 223.862 40.55C223.929 41.05 223.962 41.5667 223.962 42.1V44.55C223.962 46.15 223.762 47.55 223.362 48.75C222.962 49.95 222.445 50.9 221.812 51.6C221.212 52.3 220.445 52.8667 219.512 53.3C218.612 53.7333 217.712 54.0167 216.812 54.15C215.912 54.3167 214.929 54.4 213.862 54.4C207.829 54.4 203.112 53.9 199.712 52.9V47.4C203.379 47.7667 207.629 47.95 212.462 47.95C213.095 47.95 213.629 47.9167 214.062 47.85C214.529 47.7833 214.995 47.65 215.462 47.45C215.962 47.25 216.329 46.9333 216.562 46.5C216.829 46.0333 216.962 45.4667 216.962 44.8V42.85C216.962 41.6833 216.729 40.8167 216.262 40.25C215.795 39.6833 214.929 39.4 213.662 39.4H208.062C201.762 39.3667 198.612 36.1333 198.612 29.7ZM227.904 54V14.85H234.854V30.3C235.354 29.9333 235.671 29.7 235.804 29.6C235.971 29.5 236.288 29.2833 236.754 28.95C237.254 28.6167 237.621 28.4 237.854 28.3C238.088 28.2 238.454 28.05 238.954 27.85C239.454 27.6167 239.888 27.4667 240.254 27.4C240.654 27.3 241.121 27.2167 241.654 27.15C242.188 27.05 242.738 27 243.304 27C248.604 27 251.254 30.1 251.254 36.3V54H244.254V36.2C244.254 34.9333 243.988 34.0167 243.454 33.45C242.954 32.8833 242.238 32.6 241.304 32.6C240.371 32.6 239.538 32.7 238.804 32.9C238.104 33.0667 237.454 33.3167 236.854 33.65C236.288 33.95 235.638 34.3667 234.904 34.9V54H227.904ZM254.995 41.1C254.995 38.3667 255.195 36.1167 255.595 34.35C255.995 32.5833 256.695 31.1667 257.695 30.1C258.695 29.0333 259.928 28.2833 261.395 27.85C262.895 27.4167 264.795 27.2 267.095 27.2C271.661 27.2 274.811 28.2 276.545 30.2C278.311 32.2 279.195 35.8333 279.195 41.1C279.195 46.0667 278.328 49.5 276.595 51.4C274.895 53.3 271.728 54.25 267.095 54.25C265.261 54.25 263.661 54.1 262.295 53.8C260.961 53.4667 259.811 52.9833 258.845 52.35C257.911 51.7167 257.161 50.8833 256.595 49.85C256.028 48.7833 255.611 47.55 255.345 46.15C255.111 44.7167 254.995 43.0333 254.995 41.1ZM261.995 41.1C261.995 42.8 262.078 44.15 262.245 45.15C262.411 46.15 262.711 46.9167 263.145 47.45C263.611 47.95 264.128 48.2667 264.695 48.4C265.261 48.5333 266.061 48.6 267.095 48.6C267.995 48.6 268.678 48.5667 269.145 48.5C269.645 48.4333 270.111 48.2667 270.545 48C271.011 47.7333 271.345 47.3167 271.545 46.75C271.778 46.1833 271.945 45.4667 272.045 44.6C272.145 43.7 272.195 42.5333 272.195 41.1C272.195 39.5667 272.145 38.3333 272.045 37.4C271.978 36.4333 271.845 35.6333 271.645 35C271.445 34.3333 271.128 33.8667 270.695 33.6C270.261 33.3 269.778 33.1 269.245 33C268.711 32.8667 267.995 32.8 267.095 32.8C266.361 32.8 265.761 32.8333 265.295 32.9C264.828 32.9667 264.378 33.1167 263.945 33.35C263.511 33.55 263.178 33.8333 262.945 34.2C262.745 34.5333 262.561 35.0167 262.395 35.65C262.228 36.2833 262.111 37.0333 262.045 37.9C262.011 38.7667 261.995 39.8333 261.995 41.1ZM283.373 67.5V27.45H289.123L290.323 30.1C291.29 29.3333 292.506 28.65 293.973 28.05C295.473 27.45 296.94 27.15 298.373 27.15C299.673 27.15 300.806 27.3667 301.773 27.8C302.773 28.2333 303.59 28.8333 304.223 29.6C304.89 30.3667 305.44 31.3167 305.873 32.45C306.306 33.5833 306.606 34.8167 306.773 36.15C306.94 37.4833 307.023 38.9667 307.023 40.6C307.023 41.9667 306.973 43.2 306.873 44.3C306.806 45.4 306.656 46.5 306.423 47.6C306.19 48.6667 305.856 49.6 305.423 50.4C305.023 51.2 304.506 51.9167 303.873 52.55C303.273 53.15 302.506 53.6167 301.573 53.95C300.64 54.25 299.573 54.4 298.373 54.4C297.173 54.4 295.823 54.25 294.323 53.95C292.823 53.6167 291.49 53.2 290.323 52.7V67.5H283.373ZM290.323 47.9C292.056 48.5667 294.14 48.9 296.573 48.9C297.373 48.9 298.006 48.7167 298.473 48.35C298.94 47.95 299.306 47.15 299.573 45.95C299.873 44.75 300.023 43.0667 300.023 40.9C300.023 38.0333 299.74 36.0333 299.173 34.9C298.606 33.7333 297.74 33.15 296.573 33.15C294.106 33.15 292.023 33.6833 290.323 34.75V47.9Z" fill="url(#paint0_linear_2_18)"/>
<path d="M7 35.18V41.18C7 48.7224 7 52.4938 9.34314 54.8368C11.6863 57.18 15.4575 57.18 23 57.18H25C32.5424 57.18 36.3138 57.18 38.6568 54.8368C41 52.4938 41 48.7224 41 41.18V35.18" fill="#82A6D2"/>
<path d="M7 35.18V41.18C7 48.7224 7 52.4938 9.34314 54.8368C11.6863 57.18 15.4575 57.18 23 57.18H25C32.5424 57.18 36.3138 57.18 38.6568 54.8368C41 52.4938 41 48.7224 41 41.18V35.18" stroke="#1C274C" stroke-width="3"/>
<path d="M18.9996 17.18H28.9996L30.303 30.2147C30.676 33.944 27.7474 37.18 23.9996 37.18C20.2518 37.18 17.3232 33.944 17.6961 30.2147L18.9996 17.18Z" fill="#E96464" stroke="#1C274C" stroke-width="3"/>
<path d="M6.6595 23.8827C7.01566 22.1019 7.19374 21.2115 7.55582 20.4897C8.31876 18.9688 9.69158 17.8434 11.3326 17.3935C12.1113 17.18 13.0194 17.18 14.8354 17.18H19L17.551 31.6705C17.2382 34.7982 14.6064 37.18 11.4631 37.18C7.6022 37.18 4.70648 33.6478 5.46366 29.8619L6.6595 23.8827Z" fill="#B6FF6D" stroke="#1C274C" stroke-width="3"/>
<path d="M41.3406 23.8827C40.9844 22.1019 40.8062 21.2115 40.4442 20.4897C39.6812 18.9688 38.3084 17.8434 36.6674 17.3935C35.8886 17.18 34.9806 17.18 33.1646 17.18H29L30.449 31.6705C30.7618 34.7982 33.3936 37.18 36.537 37.18C40.3978 37.18 43.2936 33.6478 42.5364 29.8619L41.3406 23.8827Z" fill="#D4A56E" stroke="#1C274C" stroke-width="3"/>
<path d="M19 56.18V50.18C19 48.3108 19 47.3762 19.4019 46.68C19.6652 46.224 20.044 45.8452 20.5 45.582C21.1962 45.18 22.1308 45.18 24 45.18C25.8692 45.18 26.8038 45.18 27.5 45.582C27.956 45.8452 28.3348 46.224 28.598 46.68C29 47.3762 29 48.3108 29 50.18V56.18" fill="#E3DEFF"/>
<path d="M19 56.18V50.18C19 48.3108 19 47.3762 19.4019 46.68C19.6652 46.224 20.044 45.8452 20.5 45.582C21.1962 45.18 22.1308 45.18 24 45.18C25.8692 45.18 26.8038 45.18 27.5 45.582C27.956 45.8452 28.3348 46.224 28.598 46.68C29 47.3762 29 48.3108 29 50.18V56.18" stroke="#1C274C" stroke-width="3" stroke-linecap="round"/>
<defs>
<linearGradient id="paint0_linear_2_18" x1="181.688" y1="18.8976" x2="181.688" y2="60.7874" gradientUnits="userSpaceOnUse">
<stop stop-color="#3CA517"/>
<stop offset="1" stop-color="#3A8197"/>
</linearGradient>
</defs>
</svg>
